# AST/ASF file generated using VICON BodyLanguage
# -----------------------------------------------
:version 1.10
:name VICON
:units
  mass 1.0
  length 0.45
  angle deg
:documentation
   .ast/.asf automatically generated from VICON data using
   VICON BodyBuilder and BodyLanguage model FoxedUp or BRILLIANT.MOD
:root
   order TX TY TZ RX RY RZ
   axis XYZ
   position 0 0 0  
   orientation 0 0 0 
:bonedata
  begin
     id 1 
     name lhipjoint
     direction 0.576517 -0.752066 0.319413 
     length 2.45433 
     axis 0 0 0  XYZ
  end
  begin
     id 2 
     name lfemur
     direction 0.34202 -0.939693 0  
     length 7.54459  
     axis 0 0 20  XYZ
    dof rx ry rz
    limits (-160.0 20.0)
           (-70.0 70.0)
           (-60.0 70.0)
  end
  begin
     id 3 
     name ltibia
     direction 0.34202 -0.939693 0   
     length 7.73986   
     axis 0 0 20   XYZ
    dof rx
    limits (-10.0 170.0)
  end
  begin
     id 4 
     name lfoot
     direction 0.090693 -0.249177 0.964202   
     length 2.28437   
     axis -90 7.62852e-016 20   XYZ
    dof rx rz
    limits (-45.0 90.0)
           (-70.0 20.0)
  end
  begin
     id 5 
     name ltoes
     direction 1.5356e-011 -4.21928e-011 1   
     length 1.14243   
     axis -90 7.62852e-016 20   XYZ
    dof rx
    limits (-90.0 20.0)
  end
  begin
     id 6 
     name rhipjoint
     direction -0.573937 -0.753736 0.320122   
     length 2.44889  
     axis 0 0 0  XYZ 
  end
  begin
     id 7 
     name rfemur
     direction -0.34202 -0.939693 0   
     length 7.50166   
     axis 0 0 -20   XYZ
    dof rx ry rz
    limits (-160.0 20.0)
           (-70.0 70.0)
           (-70.0 60.0)
  end
  begin
     id 8 
     name rtibia
     direction -0.34202 -0.939693 0   
     length 7.54266   
     axis 0 0 -20   XYZ
    dof rx
    limits (-10.0 170.0)
 end
 begin
     id 9 
     name rfoot
     direction -0.114017 -0.31326 0.942798   
     length 2.34212  
     axis -90 -7.62852e-016 -20   XYZ
    dof rx rz
    limits (-45.0 90.0)
           (-20.0 70.0)
  end
  begin
     id 10 
     name rtoes
     direction -1.53557e-011 -4.21867e-011 1   
     length 1.16246   
     axis -90 -7.62852e-016 -20   XYZ
    dof rx
    limits (-90.0 20.0)
  end
  begin
     id 11 
     name lowerback
     direction -0.0228371 0.999155 -0.034167   
     length 2.0537   
     axis 0 0 0   XYZ
    dof rx ry rz
    limits (-20.0 45.0)
           (-30.0 30.0)
           (-30.0 30.0)
  end
  begin
     id 12 
     name upperback
     direction 0.0198981 0.999794 0.00389455   
     length 2.05302   
     axis 0 0 0   XYZ
    dof rx ry rz
    limits (-20.0 45.0)
           (-30.0 30.0)
           (-30.0 30.0)
  end
  begin
     id 13 
     name thorax
     direction 0.0304566 0.99935 0.0192987   
     length 2.05315   
     axis 0 0 0   XYZ
    dof rx ry rz
    limits (-20.0 45.0)
           (-30.0 30.0)
           (-30.0 30.0)
  end
  begin
     id 14 
     name lowerneck
     direction -0.0196762 0.99417 0.106017   
     length 1.82056   
     axis 0 0 0   XYZ
    dof rx ry rz
    limits (-20.0 45.0)
           (-30.0 30.0)
           (-30.0 30.0)
  end
  begin
     id 15 
     name upperneck
     direction 0.00517787 0.9802 -0.197944   
     length 1.83835   
     axis 0 0 0   XYZ
    dof rx ry rz
    limits (-20.0 45.0)
           (-30.0 30.0)
           (-30.0 30.0)
  end
  begin
     id 16
     name head
     direction 0.00211419 0.996945 -0.078081  
     length 1.85629  
     axis 0 0 0   XYZ
    dof rx ry rz
    limits (-20.0 45.0)
           (-30.0 30.0)
           (-30.0 30.0)
  end
  begin
     id 17 
     name lclavicle
     direction 0.930001 0.365811 -0.0357824  
     length 3.81961  
     axis 0 0 0   XYZ
    dof ry rz
    limits (-20.0 10.0)
           (0.0 20.0)
  end
  begin
     id 18 
     name lhumerus
     direction 1 -4.48968e-011 -3.06644e-027   
     length 5.14507   
     axis 180 -30 -90   XYZ
    dof rx ry rz
    limits (-60.0 90.0)
           (-90.0 90.0)
           (-90.0 90.0)
  end
  begin
     id 19
     name lradius
     direction 1 -4.48965e-011 9.06925e-028   
     length 3.50646   
     axis 180 -30 -90   XYZ
    dof rx
    limits (-10.0 170.0)
  end
  begin
     id 20
     name lwrist
     direction 1 -4.48957e-011 1.03922e-027   
     length 1.75323   
     axis -2.56395e-016 90 90   XYZ
    dof ry
    limits (-180.0 0.0)
 end
  begin
     id 21 
     name lhand
     direction 1 -4.48967e-011 2.08017e-027   
     length 0.629969   
     axis -1.32723e-015 90 90   XYZ
    dof rx rz
    limits (-90.0 90.0)
           (-45.0 45.0)
  end
  begin
     id 22 
     name lfingers
     direction 1 -4.49089e-011 4.20095e-027   
     length 0.507897   
     axis -2.6545e-015 90 90   XYZ
    dof rx
    limits (0.0 90.0)
  end
  begin
     id 23
     name lthumb
     direction 0.707107 -6.35001e-011 0.707107   
     length 0.729241   
     axis -90 45 5.05613e-014   XYZ
    dof rx rz
    limits (-45.0 45.0)
           (-45.0 45.0)
  end
  begin
     id 24 
     name rclavicle
     direction -0.881882 0.464123 -0.0829113   
     length 3.47515  
     axis 0 0 0   XYZ 
    dof ry rz
    limits (-10.0 20.0)
           (-20.0 0.0)
  end
  begin
     id 25 
     name rhumerus
     direction -1 -4.48961e-011 -1.55672e-027  
     length 5.232   
     axis 180 30 90   XYZ
    dof rx ry rz
    limits (-90.0 60.0)
           (-90.0 90.0)
           (-90.0 90.0)
  end
  begin
     id 26 
     name rradius
     direction -1 -4.48963e-011 6.18178e-029   
     length 3.65641   
     axis 180 30 90   XYZ
    dof rx
    limits (-10.0 170.0)
  end
  begin
     id 27 
     name rwrist
     direction -1 -4.48982e-011 1.04136e-027   
     length 1.8282   
     axis -2.56395e-016 -90 -90   XYZ
    dof ry
    limits (-180.0 0.0)
  end
  begin
     id 28
     name rhand
     direction -1 -4.48929e-011 2.07378e-027   
     length 0.656807   
     axis -1.32723e-015 -90 -90   XYZ
    dof rx rz
    limits (-90.0 90.0)
           (-45.0 45.0)
  end
  begin
     id 29
     name rfingers
     direction -1 -4.489e-011 4.13816e-027   
     length 0.529535   
     axis -2.6545e-015 -90 -90   XYZ
    dof rx
    limits (0.0 90.0)
  end
  begin
     id 30
     name rthumb
     direction -0.707107 -6.34843e-011 0.707107   
     length 0.760309   
     axis -90 -45 -5.05613e-014   XYZ
    dof rx rz
    limits (-45.0 45.0)
           (-45.0 45.0)
  end
:hierarchy
  begin
    root lhipjoint rhipjoint lowerback
    lhipjoint lfemur
    lfemur ltibia
    ltibia lfoot
    lfoot ltoes
    rhipjoint rfemur
    rfemur rtibia
    rtibia rfoot
    rfoot rtoes
    lowerback upperback
    upperback thorax
    thorax lowerneck lclavicle rclavicle
    lowerneck upperneck
    upperneck head
    lclavicle lhumerus
    lhumerus lradius
    lradius lwrist
    lwrist lhand lthumb
    lhand lfingers
    rclavicle rhumerus
    rhumerus rradius
    rradius rwrist
    rwrist rhand rthumb
    rhand rfingers
  end

#!OML:ASF H:\ManfredETheater\Project 1\Capture day 1\Session 1\subject.ASF
:FULLY-SPECIFIED
:DEGREES
31
root 0.663788 17.1618 32.738 -175.317 -6.65116 177.945
lowerback 4.70804 -0.802017 -3.61655
upperback -3.11604 -1.28528 1.93702
thorax -5.7688 -0.470984 4.18147
lowerneck -19.0947 -0.0655432 -1.915
upperneck 26.6795 -0.0830258 -1.16083
head 11.9349 -0.760178 -0.200883
rclavicle -5.31128e-015 1.90833e-014
rhumerus -35.5916 -11.2769 -76.7812
rradius 30.6989
rwrist 1.83256
rhand -19.9781 -12.4072
rfingers 7.12502
rthumb 6.361 -42.2917
lclavicle -5.31128e-015 1.90833e-014
lhumerus -36.3414 6.2218 83.6721
lradius 31.8907
lwrist -15.1468
lhand -8.77733 9.08938
lfingers 7.12502
lthumb 17.1608 38.3516
rfemur -30.7068 -3.11445 15.0846
rtibia 35.5932
rfoot -5.75876 -6.12247
rtoes 12.0303
lfemur -10.684 -5.15059 -25.6401
ltibia 31.9886
lfoot -22.4397 -1.01331
ltoes 9.17866
32
root 0.661812 17.162 32.7373 -175.323 -6.64304 177.955
lowerback 4.70962 -0.801618 -3.62134
upperback -3.10663 -1.2848 1.93364
thorax -5.75979 -0.470836 4.18041
lowerneck -19.1321 -0.0762579 -1.91418
upperneck 26.6677 -0.0971683 -1.14787
head 11.9379 -0.762922 -0.198137
rclavicle -1.21197e-014 -2.38542e-014
rhumerus -35.5493 -11.279 -76.7786
rradius 30.6857
rwrist 1.83499
rhand -19.9861 -12.3822
rfingers 7.12502
rthumb 6.35322 -42.267
lclavicle -1.21197e-014 -2.38542e-014
lhumerus -36.2907 6.17663 83.689
lradius 31.9124
lwrist -15.1204
lhand -8.79513 9.08935
lfingers 7.12502
lthumb 17.1436 38.353
rfemur -30.6964 -3.10386 15.0883
rtibia 35.5856
rfoot -5.75612 -6.12404
rtoes 12.0291
lfemur -10.6746 -5.14139 -25.6352
ltibia 31.9873
lfoot -22.4397 -1.0222
ltoes 9.19047
33
root 0.659765 17.1623 32.7365 -175.327 -6.63212 177.965
lowerback 4.70292 -0.800561 -3.62447
upperback -3.09247 -1.28298 1.92864
thorax -5.7412 -0.470398 4.17623
lowerneck -19.1726 -0.0877686 -1.91311
upperneck 26.653 -0.111776 -1.13526
head 11.9403 -0.765632 -0.195587
rclavicle 1.03896e-014 2.14687e-014
rhumerus -35.5003 -11.2839 -76.7781
rradius 30.6737
rwrist 1.83767
rhand -19.9965 -12.3672
rfingers 7.12502
rthumb 6.34316 -42.2522
lclavicle 1.03896e-014 2.14687e-014
lhumerus -36.2328 6.13179 83.7064
lradius 31.9384
lwrist -15.0891
lhand -8.79423 9.10871
lfingers 7.12502
lthumb 17.1445 38.3723
rfemur -30.6886 -3.09569 15.0921
rtibia 35.579
rfoot -5.75215 -6.12189
rtoes 12.0212
lfemur -10.6659 -5.13078 -25.6312
ltibia 31.9858
lfoot -22.4393 -1.03136
ltoes 9.20831
34
root 0.65767 17.1623 32.7358 -175.33 -6.61974 177.973
lowerback 4.6909 -0.799509 -3.62752
upperback -3.07671 -1.28098 1.92303
thorax -5.71791 -0.470029 4.17119
lowerneck -19.2081 -0.0994976 -1.91307
upperneck 26.6339 -0.126368 -1.1227
head 11.94 -0.768324 -0.192808
rclavicle 8.10669e-015 2.54444e-014
rhumerus -35.4508 -11.2897 -76.7777
rradius 30.6639
rwrist 1.84078
rhand -20.0043 -12.3606
rfingers 7.12502
rthumb 6.3357 -42.2458
lclavicle 8.10669e-015 2.54444e-014
lhumerus -36.1732 6.08873 83.7239
lradius 31.9663
lwrist -15.0555
lhand -8.77505 9.14099
lfingers 7.12502
lthumb 17.163 38.403
rfemur -30.6828 -3.09139 15.0962
rtibia 35.574
rfoot -5.74769 -6.11524
rtoes 12.0113
lfemur -10.6576 -5.11899 -25.6283
ltibia 31.984
lfoot -22.4382 -1.0399
ltoes 9.2179
35
root 0.655523 17.1624 32.7349 -175.334 -6.6104 177.978
lowerback 4.68055 -0.800006 -3.63353
upperback -3.06084 -1.28132 1.91607
thorax -5.6952 -0.470699 4.16665
lowerneck -19.244 -0.110532 -1.9132
upperneck 26.6148 -0.139908 -1.11007
head 11.9398 -0.770557 -0.189817
rclavicle -1.16506e-014 -2.38542e-015
rhumerus -35.4031 -11.2932 -76.7783
rradius 30.6571
rwrist 1.84303
rhand -20.0146 -12.3621
rfingers 7.12502
rthumb 6.32571 -42.2476
lclavicle -1.16506e-014 -2.38542e-015
lhumerus -36.1147 6.04567 83.7421
lradius 31.9971
lwrist -15.0179
lhand -8.75126 9.17948
lfingers 7.12502
lthumb 17.1859 38.4395
rfemur -30.6762 -3.09151 15.0956
rtibia 35.5707
rfoot -5.74503 -6.10731
rtoes 12.003
lfemur -10.6474 -5.10836 -25.6296
ltibia 31.9809
lfoot -22.4368 -1.05174
ltoes 9.22869
36
root 0.653362 17.1624 32.734 -175.339 -6.60324 177.981
lowerback 4.67411 -0.802339 -3.64165
upperback -3.04955 -1.28455 1.90968
thorax -5.67927 -0.472503 4.16438
lowerneck -19.2655 -0.119274 -1.91468
upperneck 26.5933 -0.150859 -1.09778
head 11.9358 -0.772086 -0.18629
rclavicle 6.8705e-015 -7.95139e-016
rhumerus -35.3659 -11.2888 -76.7788
rradius 30.6559
rwrist 1.84326
rhand -20.0247 -12.3727
rfingers 7.12502
rthumb 6.31595 -42.2586
lclavicle 6.8705e-015 -7.95139e-016
lhumerus -36.0674 6.00479 83.7599
lradius 32.0308
lwrist -14.9775
lhand -8.74153 9.20387
lfingers 7.12502
lthumb 17.1952 38.4631
rfemur -30.6688 -3.09409 15.094
rtibia 35.5696
rfoot -5.74441 -6.09957
rtoes 11.9911
lfemur -10.6359 -5.09872 -25.6323
ltibia 31.9769
lfoot -22.4359 -1.065
ltoes 9.23746
